<mxfile host="app.diagrams.net" modified="2024-03-29T21:03:47.795Z" agent="Mozilla/5.0 (Windows NT 10.0; Win64; x64) AppleWebKit/537.36 (KHTML, like Gecko) Chrome/123.0.0.0 Safari/537.36 Edg/123.0.0.0" etag="hyYOVbiGYhBAU6NIyQde" version="24.2.1" type="device">
  <diagram name="PÃ¡gina-1" id="VscOV9Ah3eZwBUc0Lz3c">
    <mxGraphModel dx="1615" dy="940" grid="1" gridSize="10" guides="1" tooltips="1" connect="1" arrows="1" fold="1" page="1" pageScale="1" pageWidth="827" pageHeight="1169" math="0" shadow="0">
      <root>
        <mxCell id="0" />
        <mxCell id="1" parent="0" />
        <mxCell id="wc5VOrM7tCtkyL7BnLqv-1" value="IDLE" style="rounded=1;whiteSpace=wrap;html=1;" vertex="1" parent="1">
          <mxGeometry x="60" y="130" width="110" height="50" as="geometry" />
        </mxCell>
        <mxCell id="wc5VOrM7tCtkyL7BnLqv-2" value="START" style="html=1;whiteSpace=wrap;aspect=fixed;shape=isoRectangle;" vertex="1" parent="1">
          <mxGeometry x="264" y="115" width="133.33" height="80" as="geometry" />
        </mxCell>
        <mxCell id="wc5VOrM7tCtkyL7BnLqv-5" value="" style="endArrow=classic;html=1;rounded=0;entryX=0.5;entryY=0;entryDx=0;entryDy=0;" edge="1" parent="1" target="wc5VOrM7tCtkyL7BnLqv-1">
          <mxGeometry width="50" height="50" relative="1" as="geometry">
            <mxPoint x="330.15999999999997" y="115" as="sourcePoint" />
            <mxPoint x="110" y="70" as="targetPoint" />
            <Array as="points">
              <mxPoint x="330" y="80" />
              <mxPoint x="115" y="80" />
            </Array>
          </mxGeometry>
        </mxCell>
        <mxCell id="wc5VOrM7tCtkyL7BnLqv-6" value="" style="endArrow=classic;html=1;rounded=0;" edge="1" parent="1">
          <mxGeometry width="50" height="50" relative="1" as="geometry">
            <mxPoint x="170" y="154.5" as="sourcePoint" />
            <mxPoint x="270" y="152" as="targetPoint" />
          </mxGeometry>
        </mxCell>
        <mxCell id="wc5VOrM7tCtkyL7BnLqv-7" value="0" style="text;html=1;align=center;verticalAlign=middle;whiteSpace=wrap;rounded=0;" vertex="1" parent="1">
          <mxGeometry x="310" y="80" width="60" height="30" as="geometry" />
        </mxCell>
        <mxCell id="wc5VOrM7tCtkyL7BnLqv-8" value="" style="endArrow=classic;html=1;rounded=0;" edge="1" parent="1">
          <mxGeometry width="50" height="50" relative="1" as="geometry">
            <mxPoint x="397.33000000000004" y="156.25" as="sourcePoint" />
            <mxPoint x="497" y="156" as="targetPoint" />
          </mxGeometry>
        </mxCell>
        <mxCell id="wc5VOrM7tCtkyL7BnLqv-9" value="1" style="text;html=1;align=center;verticalAlign=middle;whiteSpace=wrap;rounded=0;" vertex="1" parent="1">
          <mxGeometry x="420" y="130" width="60" height="30" as="geometry" />
        </mxCell>
        <mxCell id="wc5VOrM7tCtkyL7BnLqv-10" value="&lt;font style=&quot;font-size: 20px;&quot;&gt;&lt;b&gt;PALINDROMO&lt;/b&gt;&lt;/font&gt;" style="text;html=1;align=center;verticalAlign=middle;whiteSpace=wrap;rounded=0;" vertex="1" parent="1">
          <mxGeometry x="650" y="20" width="60" height="30" as="geometry" />
        </mxCell>
        <mxCell id="wc5VOrM7tCtkyL7BnLqv-11" value="A1" style="ellipse;whiteSpace=wrap;html=1;" vertex="1" parent="1">
          <mxGeometry x="500" y="127.5" width="80" height="55" as="geometry" />
        </mxCell>
        <mxCell id="wc5VOrM7tCtkyL7BnLqv-12" value="WHILE" style="rounded=1;whiteSpace=wrap;html=1;" vertex="1" parent="1">
          <mxGeometry x="630" y="130" width="110" height="55" as="geometry" />
        </mxCell>
        <mxCell id="wc5VOrM7tCtkyL7BnLqv-13" value="inicio &amp;lt; fin" style="html=1;whiteSpace=wrap;aspect=fixed;shape=isoRectangle;" vertex="1" parent="1">
          <mxGeometry x="820" y="117.5" width="133.33" height="80" as="geometry" />
        </mxCell>
        <mxCell id="wc5VOrM7tCtkyL7BnLqv-14" value="" style="endArrow=classic;html=1;rounded=0;" edge="1" parent="1">
          <mxGeometry width="50" height="50" relative="1" as="geometry">
            <mxPoint x="580" y="160" as="sourcePoint" />
            <mxPoint x="630" y="160" as="targetPoint" />
            <Array as="points">
              <mxPoint x="600" y="160" />
            </Array>
          </mxGeometry>
        </mxCell>
        <mxCell id="wc5VOrM7tCtkyL7BnLqv-15" value="" style="endArrow=classic;html=1;rounded=0;" edge="1" parent="1">
          <mxGeometry width="50" height="50" relative="1" as="geometry">
            <mxPoint x="740" y="160" as="sourcePoint" />
            <mxPoint x="820" y="160.25" as="targetPoint" />
          </mxGeometry>
        </mxCell>
        <mxCell id="wc5VOrM7tCtkyL7BnLqv-17" value="1" style="text;html=1;align=center;verticalAlign=middle;whiteSpace=wrap;rounded=0;" vertex="1" parent="1">
          <mxGeometry x="960" y="127.5" width="60" height="30" as="geometry" />
        </mxCell>
        <mxCell id="wc5VOrM7tCtkyL7BnLqv-18" value="" style="endArrow=classic;html=1;rounded=0;entryX=0;entryY=0.5;entryDx=0;entryDy=0;" edge="1" parent="1" target="wc5VOrM7tCtkyL7BnLqv-22">
          <mxGeometry width="50" height="50" relative="1" as="geometry">
            <mxPoint x="953.33" y="157" as="sourcePoint" />
            <mxPoint x="1033.33" y="157.25" as="targetPoint" />
          </mxGeometry>
        </mxCell>
        <mxCell id="wc5VOrM7tCtkyL7BnLqv-22" value="A2" style="ellipse;whiteSpace=wrap;html=1;" vertex="1" parent="1">
          <mxGeometry x="1040" y="130" width="80" height="55" as="geometry" />
        </mxCell>
        <mxCell id="wc5VOrM7tCtkyL7BnLqv-23" value="" style="rounded=1;whiteSpace=wrap;html=1;" vertex="1" parent="1">
          <mxGeometry x="1160" y="130" width="110" height="55" as="geometry" />
        </mxCell>
        <mxCell id="wc5VOrM7tCtkyL7BnLqv-25" value="A3" style="ellipse;whiteSpace=wrap;html=1;" vertex="1" parent="1">
          <mxGeometry x="1175" y="250" width="80" height="55" as="geometry" />
        </mxCell>
        <mxCell id="wc5VOrM7tCtkyL7BnLqv-27" value="" style="rounded=1;whiteSpace=wrap;html=1;" vertex="1" parent="1">
          <mxGeometry x="1165" y="370" width="110" height="55" as="geometry" />
        </mxCell>
        <mxCell id="wc5VOrM7tCtkyL7BnLqv-28" value="arr[inicio] != arr[fin]&lt;div&gt;A != B&lt;/div&gt;" style="html=1;whiteSpace=wrap;aspect=fixed;shape=isoRectangle;" vertex="1" parent="1">
          <mxGeometry x="940" y="357.5" width="133.33" height="80" as="geometry" />
        </mxCell>
        <mxCell id="wc5VOrM7tCtkyL7BnLqv-29" value="" style="rounded=1;whiteSpace=wrap;html=1;" vertex="1" parent="1">
          <mxGeometry x="951.66" y="490" width="110" height="55" as="geometry" />
        </mxCell>
        <mxCell id="wc5VOrM7tCtkyL7BnLqv-30" value="A4" style="ellipse;whiteSpace=wrap;html=1;" vertex="1" parent="1">
          <mxGeometry x="780" y="370" width="80" height="55" as="geometry" />
        </mxCell>
        <mxCell id="wc5VOrM7tCtkyL7BnLqv-31" value="" style="rounded=1;whiteSpace=wrap;html=1;" vertex="1" parent="1">
          <mxGeometry x="543.33" y="370" width="110" height="55" as="geometry" />
        </mxCell>
        <mxCell id="wc5VOrM7tCtkyL7BnLqv-32" value="" style="endArrow=classic;html=1;rounded=0;entryX=0;entryY=0.5;entryDx=0;entryDy=0;" edge="1" parent="1" target="wc5VOrM7tCtkyL7BnLqv-23">
          <mxGeometry width="50" height="50" relative="1" as="geometry">
            <mxPoint x="1120" y="157" as="sourcePoint" />
            <mxPoint x="1170" y="157" as="targetPoint" />
          </mxGeometry>
        </mxCell>
        <mxCell id="wc5VOrM7tCtkyL7BnLqv-34" value="" style="endArrow=classic;html=1;rounded=0;entryX=0.5;entryY=0;entryDx=0;entryDy=0;" edge="1" parent="1" target="wc5VOrM7tCtkyL7BnLqv-25">
          <mxGeometry width="50" height="50" relative="1" as="geometry">
            <mxPoint x="1214.83" y="185" as="sourcePoint" />
            <mxPoint x="1214.5" y="238" as="targetPoint" />
          </mxGeometry>
        </mxCell>
        <mxCell id="wc5VOrM7tCtkyL7BnLqv-35" value="" style="endArrow=classic;html=1;rounded=0;entryX=0.445;entryY=-0.015;entryDx=0;entryDy=0;entryPerimeter=0;" edge="1" parent="1" target="wc5VOrM7tCtkyL7BnLqv-27">
          <mxGeometry width="50" height="50" relative="1" as="geometry">
            <mxPoint x="1214.5" y="305" as="sourcePoint" />
            <mxPoint x="1214.67" y="370" as="targetPoint" />
          </mxGeometry>
        </mxCell>
        <mxCell id="wc5VOrM7tCtkyL7BnLqv-36" value="" style="endArrow=classic;html=1;rounded=0;entryX=0.5;entryY=0;entryDx=0;entryDy=0;" edge="1" parent="1" target="wc5VOrM7tCtkyL7BnLqv-29">
          <mxGeometry width="50" height="50" relative="1" as="geometry">
            <mxPoint x="1006.16" y="440" as="sourcePoint" />
            <mxPoint x="1006.33" y="505" as="targetPoint" />
          </mxGeometry>
        </mxCell>
        <mxCell id="wc5VOrM7tCtkyL7BnLqv-37" value="" style="endArrow=classic;html=1;rounded=0;entryX=0.975;entryY=0.494;entryDx=0;entryDy=0;entryPerimeter=0;" edge="1" parent="1" target="wc5VOrM7tCtkyL7BnLqv-28">
          <mxGeometry width="50" height="50" relative="1" as="geometry">
            <mxPoint x="1164.9999999999998" y="397" as="sourcePoint" />
            <mxPoint x="1093.34" y="397" as="targetPoint" />
          </mxGeometry>
        </mxCell>
        <mxCell id="wc5VOrM7tCtkyL7BnLqv-38" value="" style="endArrow=classic;html=1;rounded=0;entryX=0.975;entryY=0.494;entryDx=0;entryDy=0;entryPerimeter=0;" edge="1" parent="1">
          <mxGeometry width="50" height="50" relative="1" as="geometry">
            <mxPoint x="940" y="397" as="sourcePoint" />
            <mxPoint x="860" y="397" as="targetPoint" />
          </mxGeometry>
        </mxCell>
        <mxCell id="wc5VOrM7tCtkyL7BnLqv-39" value="" style="endArrow=classic;html=1;rounded=0;" edge="1" parent="1">
          <mxGeometry width="50" height="50" relative="1" as="geometry">
            <mxPoint x="820" y="425" as="sourcePoint" />
            <mxPoint x="600" y="160" as="targetPoint" />
            <Array as="points">
              <mxPoint x="820" y="570" />
              <mxPoint x="1320" y="570" />
              <mxPoint x="1320" y="70" />
              <mxPoint x="600" y="70" />
            </Array>
          </mxGeometry>
        </mxCell>
        <mxCell id="wc5VOrM7tCtkyL7BnLqv-40" value="START" style="html=1;whiteSpace=wrap;aspect=fixed;shape=isoRectangle;" vertex="1" parent="1">
          <mxGeometry x="190" y="357.5" width="133.33" height="80" as="geometry" />
        </mxCell>
        <mxCell id="wc5VOrM7tCtkyL7BnLqv-41" value="" style="endArrow=classic;html=1;rounded=0;entryX=1.012;entryY=0.506;entryDx=0;entryDy=0;entryPerimeter=0;" edge="1" parent="1" target="wc5VOrM7tCtkyL7BnLqv-40">
          <mxGeometry width="50" height="50" relative="1" as="geometry">
            <mxPoint x="543.33" y="397" as="sourcePoint" />
            <mxPoint x="463.33" y="397" as="targetPoint" />
          </mxGeometry>
        </mxCell>
        <mxCell id="wc5VOrM7tCtkyL7BnLqv-42" value="" style="endArrow=classic;html=1;rounded=0;" edge="1" parent="1">
          <mxGeometry width="50" height="50" relative="1" as="geometry">
            <mxPoint x="200" y="397" as="sourcePoint" />
            <mxPoint x="120" y="70" as="targetPoint" />
            <Array as="points">
              <mxPoint x="40" y="400" />
              <mxPoint x="40" y="40" />
              <mxPoint x="120" y="40" />
            </Array>
          </mxGeometry>
        </mxCell>
        <mxCell id="wc5VOrM7tCtkyL7BnLqv-43" value="" style="endArrow=classic;html=1;rounded=0;" edge="1" parent="1">
          <mxGeometry width="50" height="50" relative="1" as="geometry">
            <mxPoint x="256.16" y="437.5" as="sourcePoint" />
            <mxPoint x="683.33" y="400" as="targetPoint" />
            <Array as="points">
              <mxPoint x="256.16" y="447.5" />
              <mxPoint x="256.33" y="520" />
              <mxPoint x="683.33" y="520" />
            </Array>
          </mxGeometry>
        </mxCell>
        <mxCell id="wc5VOrM7tCtkyL7BnLqv-45" value="0" style="text;html=1;align=center;verticalAlign=middle;whiteSpace=wrap;rounded=0;" vertex="1" parent="1">
          <mxGeometry x="880" y="370" width="60" height="30" as="geometry" />
        </mxCell>
        <mxCell id="wc5VOrM7tCtkyL7BnLqv-46" value="1" style="text;html=1;align=center;verticalAlign=middle;whiteSpace=wrap;rounded=0;" vertex="1" parent="1">
          <mxGeometry x="990" y="450" width="60" height="30" as="geometry" />
        </mxCell>
        <mxCell id="wc5VOrM7tCtkyL7BnLqv-47" value="" style="endArrow=classic;html=1;rounded=0;entryX=1;entryY=0.5;entryDx=0;entryDy=0;" edge="1" parent="1" target="wc5VOrM7tCtkyL7BnLqv-31">
          <mxGeometry width="50" height="50" relative="1" as="geometry">
            <mxPoint x="886.1699999999998" y="195" as="sourcePoint" />
            <mxPoint x="660" y="400" as="targetPoint" />
            <Array as="points">
              <mxPoint x="886" y="290" />
              <mxPoint x="740" y="290" />
              <mxPoint x="740" y="398" />
            </Array>
          </mxGeometry>
        </mxCell>
        <mxCell id="wc5VOrM7tCtkyL7BnLqv-48" value="0" style="text;html=1;align=center;verticalAlign=middle;whiteSpace=wrap;rounded=0;" vertex="1" parent="1">
          <mxGeometry x="870" y="210" width="60" height="30" as="geometry" />
        </mxCell>
        <mxCell id="wc5VOrM7tCtkyL7BnLqv-49" style="edgeStyle=orthogonalEdgeStyle;rounded=0;orthogonalLoop=1;jettySize=auto;html=1;exitX=0.5;exitY=1;exitDx=0;exitDy=0;" edge="1" parent="1" source="wc5VOrM7tCtkyL7BnLqv-48" target="wc5VOrM7tCtkyL7BnLqv-48">
          <mxGeometry relative="1" as="geometry" />
        </mxCell>
        <mxCell id="wc5VOrM7tCtkyL7BnLqv-50" value="1" style="text;html=1;align=center;verticalAlign=middle;whiteSpace=wrap;rounded=0;" vertex="1" parent="1">
          <mxGeometry x="130" y="370" width="60" height="30" as="geometry" />
        </mxCell>
        <mxCell id="wc5VOrM7tCtkyL7BnLqv-51" value="0" style="text;html=1;align=center;verticalAlign=middle;whiteSpace=wrap;rounded=0;" vertex="1" parent="1">
          <mxGeometry x="240" y="450" width="60" height="30" as="geometry" />
        </mxCell>
        <mxCell id="wc5VOrM7tCtkyL7BnLqv-52" value="TABLA DE ASIGNACIONES" style="shape=table;startSize=60;container=1;collapsible=0;childLayout=tableLayout;" vertex="1" parent="1">
          <mxGeometry x="1390" y="115" width="240" height="280" as="geometry" />
        </mxCell>
        <mxCell id="wc5VOrM7tCtkyL7BnLqv-53" value="" style="shape=tableRow;horizontal=0;startSize=0;swimlaneHead=0;swimlaneBody=0;strokeColor=inherit;top=0;left=0;bottom=0;right=0;collapsible=0;dropTarget=0;fillColor=none;points=[[0,0.5],[1,0.5]];portConstraint=eastwest;" vertex="1" parent="wc5VOrM7tCtkyL7BnLqv-52">
          <mxGeometry y="60" width="240" height="56" as="geometry" />
        </mxCell>
        <mxCell id="wc5VOrM7tCtkyL7BnLqv-54" value="A1" style="shape=partialRectangle;html=1;whiteSpace=wrap;connectable=0;strokeColor=inherit;overflow=hidden;fillColor=none;top=0;left=0;bottom=0;right=0;pointerEvents=1;" vertex="1" parent="wc5VOrM7tCtkyL7BnLqv-53">
          <mxGeometry width="80" height="56" as="geometry">
            <mxRectangle width="80" height="56" as="alternateBounds" />
          </mxGeometry>
        </mxCell>
        <mxCell id="wc5VOrM7tCtkyL7BnLqv-55" value="fin &amp;lt;= n - 1" style="shape=partialRectangle;html=1;whiteSpace=wrap;connectable=0;strokeColor=inherit;overflow=hidden;fillColor=none;top=0;left=0;bottom=0;right=0;pointerEvents=1;" vertex="1" parent="wc5VOrM7tCtkyL7BnLqv-53">
          <mxGeometry x="80" width="160" height="56" as="geometry">
            <mxRectangle width="160" height="56" as="alternateBounds" />
          </mxGeometry>
        </mxCell>
        <mxCell id="wc5VOrM7tCtkyL7BnLqv-56" value="" style="shape=tableRow;horizontal=0;startSize=0;swimlaneHead=0;swimlaneBody=0;strokeColor=inherit;top=0;left=0;bottom=0;right=0;collapsible=0;dropTarget=0;fillColor=none;points=[[0,0.5],[1,0.5]];portConstraint=eastwest;" vertex="1" parent="wc5VOrM7tCtkyL7BnLqv-52">
          <mxGeometry y="116" width="240" height="54" as="geometry" />
        </mxCell>
        <mxCell id="wc5VOrM7tCtkyL7BnLqv-57" value="A2" style="shape=partialRectangle;html=1;whiteSpace=wrap;connectable=0;strokeColor=inherit;overflow=hidden;fillColor=none;top=0;left=0;bottom=0;right=0;pointerEvents=1;" vertex="1" parent="wc5VOrM7tCtkyL7BnLqv-56">
          <mxGeometry width="80" height="54" as="geometry">
            <mxRectangle width="80" height="54" as="alternateBounds" />
          </mxGeometry>
        </mxCell>
        <mxCell id="wc5VOrM7tCtkyL7BnLqv-58" value="A &amp;lt;= arr[inicio]" style="shape=partialRectangle;html=1;whiteSpace=wrap;connectable=0;strokeColor=inherit;overflow=hidden;fillColor=none;top=0;left=0;bottom=0;right=0;pointerEvents=1;" vertex="1" parent="wc5VOrM7tCtkyL7BnLqv-56">
          <mxGeometry x="80" width="160" height="54" as="geometry">
            <mxRectangle width="160" height="54" as="alternateBounds" />
          </mxGeometry>
        </mxCell>
        <mxCell id="wc5VOrM7tCtkyL7BnLqv-59" value="" style="shape=tableRow;horizontal=0;startSize=0;swimlaneHead=0;swimlaneBody=0;strokeColor=inherit;top=0;left=0;bottom=0;right=0;collapsible=0;dropTarget=0;fillColor=none;points=[[0,0.5],[1,0.5]];portConstraint=eastwest;" vertex="1" parent="wc5VOrM7tCtkyL7BnLqv-52">
          <mxGeometry y="170" width="240" height="56" as="geometry" />
        </mxCell>
        <mxCell id="wc5VOrM7tCtkyL7BnLqv-60" value="A3" style="shape=partialRectangle;html=1;whiteSpace=wrap;connectable=0;strokeColor=inherit;overflow=hidden;fillColor=none;top=0;left=0;bottom=0;right=0;pointerEvents=1;" vertex="1" parent="wc5VOrM7tCtkyL7BnLqv-59">
          <mxGeometry width="80" height="56" as="geometry">
            <mxRectangle width="80" height="56" as="alternateBounds" />
          </mxGeometry>
        </mxCell>
        <mxCell id="wc5VOrM7tCtkyL7BnLqv-61" value="B &amp;lt;=&amp;nbsp;arr[fin]" style="shape=partialRectangle;html=1;whiteSpace=wrap;connectable=0;strokeColor=inherit;overflow=hidden;fillColor=none;top=0;left=0;bottom=0;right=0;pointerEvents=1;" vertex="1" parent="wc5VOrM7tCtkyL7BnLqv-59">
          <mxGeometry x="80" width="160" height="56" as="geometry">
            <mxRectangle width="160" height="56" as="alternateBounds" />
          </mxGeometry>
        </mxCell>
        <mxCell id="wc5VOrM7tCtkyL7BnLqv-62" value="" style="shape=tableRow;horizontal=0;startSize=0;swimlaneHead=0;swimlaneBody=0;strokeColor=inherit;top=0;left=0;bottom=0;right=0;collapsible=0;dropTarget=0;fillColor=none;points=[[0,0.5],[1,0.5]];portConstraint=eastwest;" vertex="1" parent="wc5VOrM7tCtkyL7BnLqv-52">
          <mxGeometry y="226" width="240" height="54" as="geometry" />
        </mxCell>
        <mxCell id="wc5VOrM7tCtkyL7BnLqv-63" value="A4" style="shape=partialRectangle;html=1;whiteSpace=wrap;connectable=0;strokeColor=inherit;overflow=hidden;fillColor=none;top=0;left=0;bottom=0;right=0;pointerEvents=1;" vertex="1" parent="wc5VOrM7tCtkyL7BnLqv-62">
          <mxGeometry width="80" height="54" as="geometry">
            <mxRectangle width="80" height="54" as="alternateBounds" />
          </mxGeometry>
        </mxCell>
        <mxCell id="wc5VOrM7tCtkyL7BnLqv-64" value="&lt;div&gt;inicio = inicio+1&lt;/div&gt;&lt;div&gt;&amp;nbsp; &amp;nbsp; &amp;nbsp; &amp;nbsp; fin = fin -1&lt;/div&gt;" style="shape=partialRectangle;html=1;whiteSpace=wrap;connectable=0;strokeColor=inherit;overflow=hidden;fillColor=none;top=0;left=0;bottom=0;right=0;pointerEvents=1;" vertex="1" parent="wc5VOrM7tCtkyL7BnLqv-62">
          <mxGeometry x="80" width="160" height="54" as="geometry">
            <mxRectangle width="160" height="54" as="alternateBounds" />
          </mxGeometry>
        </mxCell>
      </root>
    </mxGraphModel>
  </diagram>
</mxfile>
